<svg xmlns="http://www.w3.org/2000/svg" width="40.585" height="40" viewBox="0 0 40.585 40"><defs><style>.a{fill:#2a85d5;}</style></defs><path class="a" d="M38.178,36.2A18.906,18.906,0,0,0,29.208,21h4.448a3.589,3.589,0,0,0,3.363,2.5,3.755,3.755,0,0,0,0-7.5,3.589,3.589,0,0,0-3.363,2.5h-9.8V16H16.726v2.5H6.93A3.589,3.589,0,0,0,3.567,16a3.755,3.755,0,0,0,0,7.5A3.589,3.589,0,0,0,6.93,21h4.448A18.908,18.908,0,0,0,2.407,36.2,3.746,3.746,0,0,0,0,39.75,3.666,3.666,0,0,0,3.567,43.5a3.666,3.666,0,0,0,3.567-3.75,3.751,3.751,0,0,0-2.346-3.524A16.17,16.17,0,0,1,16.726,21.435V23.5H23.86V21.435A16.17,16.17,0,0,1,35.8,36.226a3.751,3.751,0,0,0-2.346,3.524,3.572,3.572,0,1,0,7.134,0A3.746,3.746,0,0,0,38.178,36.2ZM3.567,41a1.252,1.252,0,0,1,0-2.5,1.252,1.252,0,0,1,0,2.5ZM37.018,18.5a1.252,1.252,0,1,1-1.189,1.25A1.222,1.222,0,0,1,37.018,18.5ZM3.567,21a1.252,1.252,0,0,1,0-2.5,1.252,1.252,0,0,1,0,2.5Zm17.915,0H19.1V18.5h2.378ZM37.018,41a1.252,1.252,0,1,1,1.189-1.25A1.222,1.222,0,0,1,37.018,41Z" transform="translate(0 -16)"/><path class="a" d="M157.391,121.845,148.9,136.72l4.188,8.8h-4.021v7.5h16.646v-7.5h-4.021l4.188-8.8Zm5.945,28.68h-11.89v-2.5h11.89Zm-7.588-5-4.135-8.7,4.59-8.042v9.237h2.378v-9.237l4.59,8.042-4.135,8.7Z" transform="translate(-137.098 -113.025)"/></svg>