<svg xmlns="http://www.w3.org/2000/svg" width="31.721" height="40" viewBox="0 0 31.721 40"><defs><style>.a{fill:#d86262;}</style></defs><path class="a" d="M21.722,12.77V7.031a3.516,3.516,0,1,0,0-7.031H10a3.516,3.516,0,1,0,0,7.031V12.77L.628,31.52A5.859,5.859,0,0,0,5.869,40H25.856A5.859,5.859,0,0,0,31.1,31.52Zm-9.375.553V7.031h1.172V4.688H10a1.172,1.172,0,1,1,0-2.344H21.722a1.172,1.172,0,0,1,0,2.344H18.206V7.031h1.172v6.292l2.614,5.229A10.518,10.518,0,0,0,14.7,20.226l-3.662,2.441a8.188,8.188,0,0,1-4.043,1.36ZM25.856,37.656H5.869a3.516,3.516,0,0,1-3.145-5.088l3.1-6.2a10.52,10.52,0,0,0,6.513-1.749L16,22.176a8.177,8.177,0,0,1,7.365-.879L29,32.568a3.516,3.516,0,0,1-3.144,5.088Zm0,0" transform="translate(-0.002 0)"/><path class="a" d="M101.536,362a3.516,3.516,0,1,0,3.516,3.516A3.519,3.519,0,0,0,101.536,362Zm0,4.688a1.172,1.172,0,1,1,1.172-1.172A1.173,1.173,0,0,1,101.536,366.688Zm0,0" transform="translate(-90.362 -333.719)"/><path class="a" d="M221.536,302a3.516,3.516,0,1,0,3.516,3.516A3.519,3.519,0,0,0,221.536,302Zm0,4.688a1.172,1.172,0,1,1,1.172-1.172A1.173,1.173,0,0,1,221.536,306.688Zm0,0" transform="translate(-200.987 -278.406)"/><path class="a" d="M218.02,422h2.344v2.344H218.02Zm0,0" transform="translate(-200.987 -389.031)"/></svg>