<svg xmlns="http://www.w3.org/2000/svg" width="42.793" height="40" viewBox="0 0 42.793 40"><defs><style>.a{fill:#c5b251;}</style></defs><path class="a" d="M37.163,26.178V21.793H34.655v4.385H31.532V16.709L11.261,21.478v4.7H8.138V21.793H5.631v4.385H0V56.709H42.793V26.178ZM2.507,54.2V28.686h8.754V54.2Zm20.143,0H20.143V51.694H22.65Zm6.374,0H25.158V49.187H17.635V54.2H13.769V23.464l15.256-3.589V54.2Zm11.261,0H31.532V28.686h8.754Z" transform="translate(0 -16.709)"/><path class="a" d="M194.734,135.29H198.6V137.8h-3.867Z" transform="translate(-178.458 -125.379)"/><path class="a" d="M271,135.29h3.867V137.8H271Z" transform="translate(-248.35 -125.379)"/><path class="a" d="M194.734,195.291H198.6V197.8h-3.867Z" transform="translate(-178.458 -180.365)"/><path class="a" d="M271,195.291h3.867V197.8H271Z" transform="translate(-248.35 -180.365)"/><path class="a" d="M194.734,255.291H198.6V257.8h-3.867Z" transform="translate(-178.458 -235.35)"/><path class="a" d="M271,255.291h3.867V257.8H271Z" transform="translate(-248.35 -235.35)"/><path class="a" d="M194.734,315.291H198.6V317.8h-3.867Z" transform="translate(-178.458 -290.335)"/><path class="a" d="M59.234,195.291H63.1V197.8H59.234Z" transform="translate(-54.283 -180.365)"/><path class="a" d="M59.234,255.291H63.1V257.8H59.234Z" transform="translate(-54.283 -235.35)"/><path class="a" d="M59.234,315.291H63.1V317.8H59.234Z" transform="translate(-54.283 -290.335)"/><path class="a" d="M406.5,195.291h3.867V197.8H406.5Z" transform="translate(-372.525 -180.365)"/><path class="a" d="M406.5,255.291h3.867V257.8H406.5Z" transform="translate(-372.525 -235.35)"/><path class="a" d="M406.5,315.291h3.867V317.8H406.5Z" transform="translate(-372.525 -290.335)"/><path class="a" d="M59.234,375.291H63.1V377.8H59.234Z" transform="translate(-54.283 -345.321)"/><path class="a" d="M406.5,375.291h3.867V377.8H406.5Z" transform="translate(-372.525 -345.321)"/><path class="a" d="M271,315.291h3.867V317.8H271Z" transform="translate(-248.35 -290.335)"/></svg>