<svg xmlns="http://www.w3.org/2000/svg" width="36.328" height="40" viewBox="0 0 36.328 40"><defs><style>.a{fill:#d86262;}</style></defs><path class="a" d="M49.281,14.141V2.344H42.25V0H30.531V2.344H23.5V40H59.828V14.141Zm-9.375-11.8V4.688H32.875V2.344ZM25.844,37.656V4.688h4.688V7.031H42.25V4.688h4.688v9.453H39.906V37.656Zm22.266-7.109h3.516v2.344H48.109Zm-2.344,2.344H42.25V30.547h3.516ZM48.109,28.2V25.859h3.516V28.2Zm-2.344,0H42.25V25.859h3.516ZM42.25,37.656V35.234h3.516v2.422Zm5.859,0V35.234h3.516v2.422Zm9.375,0H53.969V30.547h3.516Zm0-9.453H53.969V25.859h3.516ZM42.25,23.516V16.484H57.484v7.031Z" transform="translate(-23.5)"/><path class="a" d="M83.5,361h9.375v2.344H83.5Z" transform="translate(-78.813 -332.797)"/><path class="a" d="M83.5,301h9.375v2.344H83.5Z" transform="translate(-78.813 -277.484)"/><path class="a" d="M83.5,241h9.375v2.344H83.5Z" transform="translate(-78.813 -222.172)"/><path class="a" d="M83.5,181h9.375v2.344H83.5Z" transform="translate(-78.813 -166.859)"/></svg>