<svg xmlns="http://www.w3.org/2000/svg" width="44.799" height="40" viewBox="0 0 44.799 40"><defs><style>.a{fill:#2a85d5;}</style></defs><path class="a" d="M32.986,35.3V29.1A1.685,1.685,0,0,0,31.3,27.421H13.67A1.685,1.685,0,0,0,11.987,29.1V35.3H0V45.845a7.518,7.518,0,0,0,2.776,5.961l.012,15.615h39.4V51.547a7.456,7.456,0,0,0,2.611-5.7V35.3Zm-18.374-5.25H30.362V35.3H14.612ZM2.625,37.921H42.174v7.924a5.067,5.067,0,0,1-5.25,4.982H35.611v-5.25H27.737v5.25H17.251V45.563h-7.9v5.264H7.612a4.821,4.821,0,0,1-4.987-4.982ZM32.986,48.2v7.875H30.362V48.2ZM14.6,48.215v7.847H12V48.215ZM39.535,64.768H5.438L5.429,53.156a8.12,8.12,0,0,0,2.183.295H9.349v5.264h7.9V53.451H27.737V58.7h7.875v-5.25h1.312a8.337,8.337,0,0,0,2.611-.413v11.73Z" transform="translate(0 -27.421)"/></svg>