<svg xmlns="http://www.w3.org/2000/svg" width="1176.983" height="50" viewBox="0 0 1176.983 50"><defs><style>.a{opacity:0.5;}.b,.c{fill:#747474;}.b{fill-rule:evenodd;}</style></defs><g class="a" transform="translate(-342 -1053)"><g transform="translate(-801.792 -280.071)"><path class="b" d="M2.792,115.541V111.7H4.925c1.066,0,3.2-.213,3.2-2.773V85.891c0-1.387-.107-4.693-2.773-4.693H2.9l2.773-4.906H169.753V81.2H18.791c-1.387,0-3.2.32-3.2,3.093v7.253c.321.853,1.6,1.172,2.24,1.172s2.879-.106,2.879-3.626h3.2v11.839h-3.2a3.393,3.393,0,0,0-2.772-2.987c-1.28-.106-2.347.32-2.347,2.027v8.959c0,.961,1.173,2.773,3.946,2.773h1.921v3.839H2.792Z" transform="translate(2134 1261.996)"/><path class="b" d="M97.947,86.74c0,.854,1.066,1.706,1.705,1.92.747-.533,4.694-2.772,7.787-2.772s4.692,1.6,4.692,4.053v11.732h-7.466V92.607c0-1.173-.319-2.027-1.387-2.133s-3.839,2.133-4.585,3.2v16.212a2.783,2.783,0,0,0,2.773,2.56v3.094H88.455v-3.2c1.279,0,2.666-.427,2.773-2.346V91.966a2.667,2.667,0,0,0-2.773-2.027v-3.2Zm89.293,0H174.229v3.2A2.664,2.664,0,0,1,177,91.967v18.025c-.105,1.92-1.493,2.346-2.771,2.346v3.2h13.011v-3.094a2.784,2.784,0,0,1-2.773-2.56V92.179c0-1.279,1.387-2.239,2.773-2.239Zm-118.09,0c0,.854,1.066,1.706,1.706,1.92.746-.533,4.693-2.772,7.786-2.772s4.693,1.6,4.693,4.053v11.732H75.869V92.607c0-1.173-.321-2.027-1.387-2.133s-3.84,2.133-4.587,3.2v16.212a2.784,2.784,0,0,0,2.773,2.56v3.094H59.658v-3.2c1.279,0,2.666-.427,2.773-2.346V91.966a2.667,2.667,0,0,0-2.773-2.027v-3.2Zm86.518,0c0,.854,1.068,1.706,1.707,1.92.747-.533,4.692-2.772,7.787-2.772s4.692,1.6,4.692,4.053v11.732h-7.466V92.607c0-1.173-.321-2.027-1.387-2.133s-3.839,2.133-4.587,3.2v16.212a2.783,2.783,0,0,0,2.773,2.56v3.094H146.175v-3.2c1.281,0,2.668-.427,2.773-2.346V91.966a2.666,2.666,0,0,0-2.773-2.027v-3.2ZM54.026,106.578H46.56v2.88c0,1.172-.213,3.627-3.733,3.627s-4.586-2.347-4.586-4.054v-6.079a1.273,1.273,0,0,1,1.173-1.28H54.026V93.886c0-3.52-.746-4.587-2.24-6.079s-6.72-1.92-9.066-1.92c-5.972,0-7.893.853-9.6,2.239s-2.346,4.266-2.346,6.4v12.052c0,3.2.64,5.439,2.666,7.466s8.212,2.027,9.493,2.027,5.545.106,8.639-2.133,2.454-7.359,2.454-7.359ZM38.241,93.353c0-1.706.533-4.266,4.266-4.266s4.053,2.773,4.053,4.266v3.839a1.3,1.3,0,0,1-1.279,1.279H39.52A1.28,1.28,0,0,1,38.241,97.3V93.353Zm101.324,16.531v-16c0-2.454-.107-5.012-2.668-6.826s-6.719-1.706-8.319-1.706-6.932,0-9.387,2.773a8.261,8.261,0,0,0-2.027,6.505h6.987s.478-3.626,1.439-4.586a4.176,4.176,0,0,1,5.493-.321,2.949,2.949,0,0,1,1.012,2.346v4.586a1.134,1.134,0,0,1-.959,1.067s-9.707.213-11.412,1.494-3.2,2.133-3.2,6.826,1.173,6.505,2.561,7.466,2.027,2.027,8.319,2.027h14.932v-3.094a2.783,2.783,0,0,1-2.771-2.56ZM132.1,111.7a.86.86,0,0,1-.745.639h-3.68a3.359,3.359,0,0,1-3.359-3.627V104.6c0-4,4.159-3.892,5.812-3.892S132.1,102.1,132.1,103V111.7Zm48.147-30.557c3.734,0,6.759-1.135,6.759-2.535s-3.025-2.535-6.759-2.535-6.761,1.135-6.761,2.535S176.51,81.141,180.244,81.141Z" transform="translate(2133.536 1262)"/></g><g transform="translate(342.003 1053)"><path class="c" d="M18.862,0h1.362A18.587,18.587,0,0,1,32.946,5.371c-1.234,1.259-2.493,2.467-3.7,3.727A13.9,13.9,0,0,0,5.909,17.477a14.307,14.307,0,0,0,3.11,11.051,13.756,13.756,0,0,0,10.023,4.935,13.343,13.343,0,0,0,9.972-3.418,10.885,10.885,0,0,0,3.315-7.093c-4.266,0-8.533.026-12.8,0V17.657H37.5c.925,5.68-.411,12.079-4.729,16.14a17.565,17.565,0,0,1-10.923,4.909,20.061,20.061,0,0,1-11.488-2.262A19.78,19.78,0,0,1,1.18,25.984a18.95,18.95,0,0,1-.129-12.825A19.567,19.567,0,0,1,8.119,3.778,20.177,20.177,0,0,1,18.862,0Z" transform="translate(0)"/><path class="c" d="M474.4,5.2h5.5V41.9c-1.825,0-3.675.026-5.5-.026.026-12.208,0-24.442,0-36.675Z" transform="translate(-352.477 -3.864)"/><path class="c" d="M164.362,54.041a12.914,12.914,0,0,1,9.869,2.107,12.072,12.072,0,0,1,4.857,7.71,12.428,12.428,0,0,1-13.056,14.907,12.507,12.507,0,0,1-9.355-5.012,12.847,12.847,0,0,1-1.7-11.668,12.2,12.2,0,0,1,9.381-8.044m.771,4.883a6.91,6.91,0,0,0-3.6,2.287,8.152,8.152,0,0,0,.411,10.614,6.844,6.844,0,0,0,6.117,1.9,6.922,6.922,0,0,0,4.78-3.521,8.129,8.129,0,0,0-1.388-9.664A6.934,6.934,0,0,0,165.133,58.924Z" transform="translate(-114.633 -39.983)"/><path class="c" d="M270.386,54.035a12.5,12.5,0,0,1,12.234,20.124,12.712,12.712,0,0,1-19.918-.411,12.971,12.971,0,0,1-1.619-11.925,12.207,12.207,0,0,1,9.3-7.787m.771,4.883a7.028,7.028,0,0,0-3.6,2.262,8.164,8.164,0,0,0,.283,10.512,6.877,6.877,0,0,0,6.271,2.03,7.05,7.05,0,0,0,4.78-3.521,8.172,8.172,0,0,0-1.439-9.689A6.89,6.89,0,0,0,271.157,58.919Z" transform="translate(-193.414 -39.977)"/><path class="c" d="M371.985,55.524a10.507,10.507,0,0,1,10.075-.771,9.6,9.6,0,0,1,2.622,1.928c.026-.694,0-1.414.026-2.133,1.722.026,3.444,0,5.192.026V77.241c-.026,3.418-.9,7.042-3.367,9.535-2.7,2.75-6.836,3.6-10.563,3.033a11.952,11.952,0,0,1-9-7.171c1.542-.745,3.161-1.336,4.755-2.03a7.068,7.068,0,0,0,5.012,4.318,6.661,6.661,0,0,0,6.425-2.056c1.593-1.953,1.593-4.626,1.516-7.016a9.124,9.124,0,0,1-4.189,2.57,11.3,11.3,0,0,1-10.255-2.647,12.652,12.652,0,0,1,1.748-20.252m5.32,3.29a6.762,6.762,0,0,0-4.035,2.339,8.2,8.2,0,0,0,.026,10.306,6.724,6.724,0,0,0,5.783,2.364,6.53,6.53,0,0,0,4.909-3.264,8.675,8.675,0,0,0-.874-9.715,6.325,6.325,0,0,0-5.808-2.03Z" transform="translate(-271.908 -39.975)"/><path class="c" d="M510.235,56.788a11.6,11.6,0,0,1,11.8-2.339c3.752,1.414,6.143,4.986,7.35,8.661-5.577,2.313-11.129,4.6-16.706,6.914a6.627,6.627,0,0,0,3.547,3.341,7.2,7.2,0,0,0,6.785-.977,10.942,10.942,0,0,0,1.9-2.03c1.414.951,2.827,1.876,4.241,2.827a12.583,12.583,0,0,1-19.867,1.259,13.174,13.174,0,0,1,.951-17.657m2.75,4.755a7.338,7.338,0,0,0-1.208,4.318q5.59-2.313,11.18-4.652a4.623,4.623,0,0,0-3.624-2.544A6.567,6.567,0,0,0,512.985,61.543Z" transform="translate(-376.207 -39.928)"/></g><g transform="translate(579 1058)"><path class="c" d="M422.19,46.344v-3.3H418.1V37.926l-.138.042-3.843,1.176-.076.023v3.881h-6.066V40.887a3.434,3.434,0,0,1,.669-2.291,2.359,2.359,0,0,1,1.875-.766,4.367,4.367,0,0,1,1.778.4l.151.067v-3.47l-.071-.026a6.931,6.931,0,0,0-2.273-.3,6.662,6.662,0,0,0-3.224.774,5.51,5.51,0,0,0-2.212,2.187,6.519,6.519,0,0,0-.783,3.208v2.377h-2.849v3.3h2.849V60.225h4.09V46.344h6.066v8.821c0,3.633,1.714,5.474,5.093,5.474a8.356,8.356,0,0,0,1.737-.192,4.8,4.8,0,0,0,1.265-.4l.054-.032V56.688l-.166.11a2.864,2.864,0,0,1-.822.359,3.125,3.125,0,0,1-.808.137,2.191,2.191,0,0,1-1.741-.634,3.416,3.416,0,0,1-.554-2.207V46.344h4.092ZM391.9,57.3a4.339,4.339,0,0,1-3.48-1.462,6.208,6.208,0,0,1-1.25-4.129,6.453,6.453,0,0,1,1.251-4.239,4.27,4.27,0,0,1,3.446-1.485,4.2,4.2,0,0,1,3.356,1.42,6.327,6.327,0,0,1,1.225,4.2,6.746,6.746,0,0,1-1.153,4.256,4.1,4.1,0,0,1-3.4,1.434m.182-14.66A8.971,8.971,0,0,0,385.4,45.1a9.25,9.25,0,0,0-2.416,6.734,8.759,8.759,0,0,0,2.358,6.428,8.555,8.555,0,0,0,6.329,2.375,8.726,8.726,0,0,0,6.554-2.5,9.225,9.225,0,0,0,2.415-6.667A9,9,0,0,0,398.371,45a8.346,8.346,0,0,0-6.289-2.36m-15.7,0a7.394,7.394,0,0,0-4.738,1.464A4.672,4.672,0,0,0,369.8,47.91a5.332,5.332,0,0,0,.4,2.13,4.278,4.278,0,0,0,1.222,1.6,10.636,10.636,0,0,0,2.486,1.391,18.528,18.528,0,0,1,2.068.963,2.874,2.874,0,0,1,.91.747,1.678,1.678,0,0,1,.253.974c0,1.154-.864,1.715-2.642,1.715a7.264,7.264,0,0,1-2.236-.409,8.4,8.4,0,0,1-2.29-1.161l-.17-.122v3.938l.062.029a10.132,10.132,0,0,0,2.168.67,11.631,11.631,0,0,0,2.316.268,7.851,7.851,0,0,0,5-1.473,4.764,4.764,0,0,0,1.863-3.9,4.487,4.487,0,0,0-1-2.951,8.59,8.59,0,0,0-3.4-2.168,8.778,8.778,0,0,1-2.426-1.261,1.765,1.765,0,0,1-.489-1.323,1.474,1.474,0,0,1,.621-1.224,2.79,2.79,0,0,1,1.741-.491,7.125,7.125,0,0,1,2.072.319,6.659,6.659,0,0,1,1.81.839l.167.114V43.384l-.064-.028a8.924,8.924,0,0,0-1.837-.513,11.218,11.218,0,0,0-2.015-.209M359.14,57.3a4.339,4.339,0,0,1-3.48-1.462,6.207,6.207,0,0,1-1.25-4.129,6.452,6.452,0,0,1,1.251-4.239,4.268,4.268,0,0,1,3.446-1.485,4.205,4.205,0,0,1,3.356,1.42,6.326,6.326,0,0,1,1.225,4.2,6.746,6.746,0,0,1-1.153,4.256,4.1,4.1,0,0,1-3.4,1.434m.182-14.66a8.969,8.969,0,0,0-6.686,2.467,9.25,9.25,0,0,0-2.416,6.734,8.758,8.758,0,0,0,2.359,6.428,8.554,8.554,0,0,0,6.329,2.375,8.726,8.726,0,0,0,6.554-2.5,9.226,9.226,0,0,0,2.415-6.667A9,9,0,0,0,365.61,45a8.346,8.346,0,0,0-6.288-2.36m-15.311,3.388V43.049h-4.04V60.225h4.04V51.439a6.124,6.124,0,0,1,1.007-3.648,3.089,3.089,0,0,1,2.613-1.38,4.744,4.744,0,0,1,1.215.179,3.073,3.073,0,0,1,.942.381l.17.123V43.019l-.065-.028a4.183,4.183,0,0,0-1.582-.241,4.14,4.14,0,0,0-2.7.969,5.473,5.473,0,0,0-1.554,2.3Zm-11.276-3.388a9.973,9.973,0,0,0-4.913,1.181,7.958,7.958,0,0,0-3.24,3.332,10.613,10.613,0,0,0-1.113,4.936,9.106,9.106,0,0,0,1.082,4.425,7.6,7.6,0,0,0,3.023,3.057,9,9,0,0,0,4.417,1.074,9.671,9.671,0,0,0,4.874-1.141l.053-.03v-3.7l-.17.124a7.6,7.6,0,0,1-1.977,1.029,5.973,5.973,0,0,1-1.936.375,4.975,4.975,0,0,1-3.782-1.474,5.734,5.734,0,0,1-1.4-4.085,5.948,5.948,0,0,1,1.454-4.192A4.948,4.948,0,0,1,332.9,45.98a6.489,6.489,0,0,1,3.846,1.338l.169.123v-3.9l-.055-.031a6.667,6.667,0,0,0-1.869-.632,11.165,11.165,0,0,0-2.258-.242m-12.049.414h-4.04V60.225h4.04V43.049Zm-1.979-7.317a2.434,2.434,0,0,0-1.721.675,2.227,2.227,0,0,0-.721,1.685,2.164,2.164,0,0,0,.714,1.652,2.461,2.461,0,0,0,1.729.658,2.492,2.492,0,0,0,1.737-.657,2.155,2.155,0,0,0,.723-1.653,2.27,2.27,0,0,0-.7-1.667,2.41,2.41,0,0,0-1.757-.693m-10.081,6.05V60.225h4.123V36.258h-5.707l-7.254,17.8-7.039-17.8H286.81V60.225h3.875V41.78h.133l7.433,18.445h2.924l7.317-18.443h.133Z" transform="translate(-234.827 -28.249)"/><path class="c" d="M19.007,19.007H0V0H19.007Z"/><path class="c" d="M134.794,19.007H115.788V0h19.006Z" transform="translate(-94.802)"/><path class="c" d="M19.006,134.835H0V115.828H19.006Z" transform="translate(0 -94.835)"/><path class="c" d="M134.794,134.835H115.788V115.828h19.006Z" transform="translate(-94.802 -94.835)"/></g><path class="c" d="M20.352,37.422c-2.226.391-4.492.508-6.836.82L6.367,17.3V39.141C4.141,39.375,2.109,39.688,0,40V0H5.938l8.125,22.7V0h6.289Zm12.3-22.773c2.422,0,6.133-.117,8.359-.117v6.25c-2.774,0-6.016,0-8.359.117v9.3c3.672-.234,7.344-.547,11.055-.664v6.015l-17.3,1.367V0h17.3V6.25H32.656Zm34.3-8.4H60.469V35c-2.109,0-4.219,0-6.25.078V6.25H47.735V0H66.953V6.25Zm10.156,7.969h8.555v6.25H77.109v14.18H70.976V0H88.437V6.25H77.109ZM98.594,29.18c3.555.078,7.148.352,10.625.547V35.9c-5.586-.352-11.172-.7-16.875-.82V0h6.25Zm15.9,7.148c1.992.117,4.1.235,6.133.469V0h-6.133ZM148.008,0l-7.93,19.023L148.008,40c-2.344-.312-4.688-.742-7.032-1.133L136.484,27.3l-4.57,10.625c-2.266-.391-4.454-.508-6.719-.821l8.047-18.32L125.977,0H132.7l4.1,10.508L141.172,0Z" transform="translate(851 1058)"/><path class="c" d="M99.43,1369.15a25,25,0,1,0,25,25,25,25,0,0,0-25-25h0Zm11.465,36.057a1.557,1.557,0,0,1-2.143.519c-5.871-3.588-13.26-4.4-21.962-2.411a1.558,1.558,0,1,1-.693-3.037c9.523-2.177,17.692-1.24,24.281,2.786a1.558,1.558,0,0,1,.516,2.143h0Zm3.06-6.806a1.95,1.95,0,0,1-2.681.642c-6.718-4.13-16.963-5.326-24.911-2.913a1.949,1.949,0,1,1-1.133-3.729c9.079-2.755,20.366-1.42,28.083,3.322a1.948,1.948,0,0,1,.642,2.68h0Zm.263-7.088c-8.059-4.786-21.351-5.226-29.044-2.891a2.338,2.338,0,1,1-1.357-4.475c8.831-2.681,23.511-2.163,32.788,3.344a2.338,2.338,0,0,1-2.386,4.022h0Zm28.229.917c-4.316-1.029-5.085-1.752-5.085-3.27,0-1.434,1.35-2.4,3.358-2.4a9.812,9.812,0,0,1,5.9,2.242.282.282,0,0,0,.213.052.278.278,0,0,0,.187-.115l2.108-2.971a.283.283,0,0,0-.054-.385,12.752,12.752,0,0,0-8.29-2.872c-4.661,0-7.916,2.8-7.916,6.8,0,4.292,2.808,5.811,7.661,6.984,4.13.951,4.828,1.749,4.828,3.173,0,1.579-1.41,2.56-3.678,2.56a9.914,9.914,0,0,1-6.874-2.84.3.3,0,0,0-.207-.068.28.28,0,0,0-.194.1l-2.363,2.812a.28.28,0,0,0,.028.392,14.089,14.089,0,0,0,9.515,3.649c5.022,0,8.268-2.744,8.268-6.991.009-3.585-2.137-5.57-7.395-6.849Zm18.766-4.257a6.772,6.772,0,0,0-5.435,2.614v-1.977a.283.283,0,0,0-.282-.283H151.63a.283.283,0,0,0-.282.283v21.972a.283.283,0,0,0,.282.283h3.865a.283.283,0,0,0,.282-.283v-6.936a6.943,6.943,0,0,0,5.435,2.46c4.045,0,8.139-3.114,8.139-9.066s-4.09-9.068-8.135-9.068Zm3.645,9.068c0,3.031-1.867,5.146-4.54,5.146-2.643,0-4.636-2.211-4.636-5.146s1.994-5.146,4.636-5.146,4.541,2.163,4.541,5.146h0Zm14.989-9.068a9.086,9.086,0,1,0,9.257,9.068,9.114,9.114,0,0,0-9.257-9.068Zm0,14.244a4.916,4.916,0,0,1-4.859-5.178,4.8,4.8,0,0,1,4.8-5.115,4.931,4.931,0,0,1,4.891,5.18,4.812,4.812,0,0,1-4.827,5.113Zm20.381-13.891h-4.253v-4.348a.283.283,0,0,0-.282-.283h-3.864a.283.283,0,0,0-.283.283v4.348h-1.858a.283.283,0,0,0-.282.283v3.322a.283.283,0,0,0,.282.283h1.858v8.595c0,3.473,1.729,5.234,5.138,5.234a7.051,7.051,0,0,0,3.621-.9.282.282,0,0,0,.143-.245v-3.163a.283.283,0,0,0-.41-.254,4.872,4.872,0,0,1-2.269.547c-1.24,0-1.793-.563-1.793-1.825v-7.987h4.253a.282.282,0,0,0,.282-.283v-3.322a.274.274,0,0,0-.278-.283Zm14.819.017v-.534c0-1.571.6-2.272,1.954-2.272a6.524,6.524,0,0,1,2.178.4.283.283,0,0,0,.372-.269v-3.257a.283.283,0,0,0-.2-.271,10.608,10.608,0,0,0-3.212-.462c-3.57,0-5.457,2.01-5.457,5.812v.818h-1.857a.284.284,0,0,0-.284.283v3.339a.284.284,0,0,0,.284.283h1.857v13.257a.283.283,0,0,0,.282.283h3.865a.284.284,0,0,0,.283-.283v-13.257h3.609l5.528,13.254c-.628,1.393-1.245,1.67-2.087,1.67a4.459,4.459,0,0,1-2.131-.6.29.29,0,0,0-.225-.021.286.286,0,0,0-.167.152l-1.31,2.874a.281.281,0,0,0,.122.366,8.138,8.138,0,0,0,4.128,1.057c2.854,0,4.431-1.329,5.822-4.906l6.705-17.327a.283.283,0,0,0-.262-.386h-4.024a.284.284,0,0,0-.268.19l-4.122,11.774-4.515-11.781a.282.282,0,0,0-.264-.182h-6.6Zm-8.592-.017h-3.865a.284.284,0,0,0-.283.283v16.863a.284.284,0,0,0,.283.283h3.865a.284.284,0,0,0,.283-.283V1388.61a.283.283,0,0,0-.284-.283Zm-1.911-7.678a2.772,2.772,0,1,0,2.772,2.771,2.772,2.772,0,0,0-2.772-2.771Zm33.859,13.1a2.727,2.727,0,1,1,2.734-2.736,2.709,2.709,0,0,1-2.734,2.736Zm.015-5.184a2.456,2.456,0,1,0,2.434,2.448,2.432,2.432,0,0,0-2.434-2.448h0Zm.6,2.728.769,1.077h-.649l-.693-.988h-.6v.988h-.543v-2.855h1.273c.663,0,1.1.339,1.1.911a.848.848,0,0,1-.66.867Zm-.46-1.288h-.708v.9h.708c.353,0,.564-.173.564-.452s-.212-.451-.564-.451Z" transform="translate(1009.57 -316.15)"/></g></svg>