<svg xmlns="http://www.w3.org/2000/svg" width="73" height="73" viewBox="0 0 73 73"><defs><style>.a{opacity:0.2;}.b{fill:#fab8c4;}</style></defs><g class="a" transform="translate(-2966 -4017)"><circle class="b" cx="3.5" cy="3.5" r="3.5" transform="translate(2966 4017)"/><ellipse class="b" cx="3" cy="3.5" rx="3" ry="3.5" transform="translate(2980 4017)"/><ellipse class="b" cx="3" cy="3.5" rx="3" ry="3.5" transform="translate(2993 4017)"/><circle class="b" cx="3.5" cy="3.5" r="3.5" transform="translate(3006 4017)"/><circle class="b" cx="3.5" cy="3.5" r="3.5" transform="translate(3019 4017)"/><ellipse class="b" cx="3" cy="3.5" rx="3" ry="3.5" transform="translate(3033 4017)"/><ellipse class="b" cx="3.5" cy="3" rx="3.5" ry="3" transform="translate(2966 4031)"/><circle class="b" cx="3" cy="3" r="3" transform="translate(2980 4031)"/><circle class="b" cx="3" cy="3" r="3" transform="translate(2993 4031)"/><ellipse class="b" cx="3.5" cy="3" rx="3.5" ry="3" transform="translate(3006 4031)"/><ellipse class="b" cx="3.5" cy="3" rx="3.5" ry="3" transform="translate(3019 4031)"/><circle class="b" cx="3" cy="3" r="3" transform="translate(3033 4031)"/><ellipse class="b" cx="3.5" cy="3" rx="3.5" ry="3" transform="translate(2966 4044)"/><circle class="b" cx="3" cy="3" r="3" transform="translate(2980 4044)"/><circle class="b" cx="3" cy="3" r="3" transform="translate(2993 4044)"/><ellipse class="b" cx="3.5" cy="3" rx="3.5" ry="3" transform="translate(3006 4044)"/><ellipse class="b" cx="3.5" cy="3" rx="3.5" ry="3" transform="translate(3019 4044)"/><circle class="b" cx="3" cy="3" r="3" transform="translate(3033 4044)"/><circle class="b" cx="3.5" cy="3.5" r="3.5" transform="translate(2966 4057)"/><ellipse class="b" cx="3" cy="3.5" rx="3" ry="3.5" transform="translate(2980 4057)"/><ellipse class="b" cx="3" cy="3.5" rx="3" ry="3.5" transform="translate(2993 4057)"/><circle class="b" cx="3.5" cy="3.5" r="3.5" transform="translate(3006 4057)"/><circle class="b" cx="3.5" cy="3.5" r="3.5" transform="translate(3019 4057)"/><ellipse class="b" cx="3" cy="3.5" rx="3" ry="3.5" transform="translate(3033 4057)"/><circle class="b" cx="3.5" cy="3.5" r="3.5" transform="translate(2966 4070)"/><ellipse class="b" cx="3" cy="3.5" rx="3" ry="3.5" transform="translate(2980 4070)"/><ellipse class="b" cx="3" cy="3.5" rx="3" ry="3.5" transform="translate(2993 4070)"/><circle class="b" cx="3.5" cy="3.5" r="3.5" transform="translate(3006 4070)"/><circle class="b" cx="3.5" cy="3.5" r="3.5" transform="translate(3019 4070)"/><ellipse class="b" cx="3" cy="3.5" rx="3" ry="3.5" transform="translate(3033 4070)"/><ellipse class="b" cx="3.5" cy="3" rx="3.5" ry="3" transform="translate(2966 4084)"/><circle class="b" cx="3" cy="3" r="3" transform="translate(2980 4084)"/><circle class="b" cx="3" cy="3" r="3" transform="translate(2993 4084)"/><ellipse class="b" cx="3.5" cy="3" rx="3.5" ry="3" transform="translate(3006 4084)"/><ellipse class="b" cx="3.5" cy="3" rx="3.5" ry="3" transform="translate(3019 4084)"/><circle class="b" cx="3" cy="3" r="3" transform="translate(3033 4084)"/></g></svg>