<svg xmlns="http://www.w3.org/2000/svg" width="76.796" height="35.635" viewBox="0 0 76.796 35.635"><defs><style>.a{fill:#fab8c4;}</style></defs><g transform="translate(-3100.692 185.262)"><path class="a" d="M3078.266,1738.814a14.373,14.373,0,0,1,8,2.54,12.114,12.114,0,0,0,13.973,0,13.883,13.883,0,0,1,16.01,0,12.115,12.115,0,0,0,13.973,0,.919.919,0,0,1,1.019,1.53,13.881,13.881,0,0,1-16.01,0,12.114,12.114,0,0,0-13.973,0,13.881,13.881,0,0,1-16.01,0,12.116,12.116,0,0,0-13.974,0,13.882,13.882,0,0,1-16.01,0,.919.919,0,1,1,1.018-1.53,12.116,12.116,0,0,0,13.973,0A14.374,14.374,0,0,1,3078.266,1738.814Z" transform="translate(45.833 -1924.075)"/><path class="a" d="M3078.266,1777.1a14.373,14.373,0,0,1,8,2.54,12.114,12.114,0,0,0,13.973,0,13.882,13.882,0,0,1,16.01,0,12.116,12.116,0,0,0,13.973,0,.919.919,0,1,1,1.019,1.53,13.881,13.881,0,0,1-16.01,0,12.114,12.114,0,0,0-13.973,0,13.881,13.881,0,0,1-16.01,0,12.116,12.116,0,0,0-13.974,0,13.882,13.882,0,0,1-16.01,0,.919.919,0,1,1,1.018-1.53,12.117,12.117,0,0,0,13.973,0A14.374,14.374,0,0,1,3078.266,1777.1Z" transform="translate(45.833 -1947.851)"/><path class="a" d="M3078.266,1815.39a14.374,14.374,0,0,1,8,2.54,12.114,12.114,0,0,0,13.973,0,13.883,13.883,0,0,1,16.01,0,12.116,12.116,0,0,0,13.973,0,.919.919,0,1,1,1.019,1.529,13.881,13.881,0,0,1-16.01,0,12.115,12.115,0,0,0-13.973,0,13.881,13.881,0,0,1-16.01,0,12.116,12.116,0,0,0-13.974,0,13.881,13.881,0,0,1-16.01,0,.919.919,0,1,1,1.018-1.529,12.117,12.117,0,0,0,13.973,0A14.375,14.375,0,0,1,3078.266,1815.39Z" transform="translate(45.833 -1971.627)"/></g></svg>