<svg xmlns="http://www.w3.org/2000/svg" width="24.557" height="19.953" viewBox="0 0 24.557 19.953"><defs><style>.a{fill:#fff;}</style></defs><g transform="translate(0 0)"><path class="a" d="M24.557,50.362a10.5,10.5,0,0,1-2.9.8,5.006,5.006,0,0,0,2.215-2.783,10.061,10.061,0,0,1-3.192,1.219,5.034,5.034,0,0,0-8.709,3.443,5.184,5.184,0,0,0,.117,1.148A14.25,14.25,0,0,1,1.71,48.918a5.036,5.036,0,0,0,1.547,6.729,4.972,4.972,0,0,1-2.275-.62v.055a5.058,5.058,0,0,0,4.034,4.947,5.024,5.024,0,0,1-1.32.166,4.451,4.451,0,0,1-.953-.086,5.082,5.082,0,0,0,4.7,3.507A10.116,10.116,0,0,1,1.2,65.763,9.428,9.428,0,0,1,0,65.694a14.173,14.173,0,0,0,7.723,2.259A14.23,14.23,0,0,0,22.053,53.627c0-.223-.008-.437-.018-.651A10.043,10.043,0,0,0,24.557,50.362Z" transform="translate(0 -48)"/></g></svg>